<svg width="555" height="154" viewBox="0 0 555 154" fill="none" xmlns="http://www.w3.org/2000/svg">
<path d="M35 7.59999C35.2667 7.46666 48.6667 7.39999 75.2 7.39999C101.733 7.53333 115.867 7.73333 117.6 8C122 8.66666 126.267 10 130.4 12C135.333 14.5333 139.133 17.8 141.8 21.8C147.267 29.8 147.733 38.4 143.2 47.6C142.4 49.2 141.467 50.7333 140.4 52.2C138.4 55.2667 135.333 58.4 131.2 61.6C124.667 66.4 116.933 69.9333 108 72.2C107.6 72.3333 107.4 72.4667 107.4 72.6C108.333 72.6 110.733 73.2 114.6 74.4C123.533 77.2 129.667 82.0667 133 89C136.733 96.6 136.4 104.933 132 114C126.667 124.8 117.6 133.067 104.8 138.8C104 139.2 103.267 139.533 102.6 139.8C98.2 141.533 93.6667 142.733 89 143.4C87.2667 143.667 72.4 143.867 44.4 144C16.2667 144 1.93333 143.8 1.4 143.4L1 142.6C0.866667 142.2 1.06667 140.667 1.6 138C2.4 135.333 2.93333 133.8 3.2 133.4L4 132.8H10.8C18.2667 132.667 22.4667 132.133 23.4 131.2C23.8 130.933 28.6 112.4 37.8 75.6C47 38.8 51.6 20.2667 51.6 20C51.6 19.8667 51.4667 19.6667 51.2 19.4C50.6667 19.1333 47.0667 18.8667 40.4 18.6H33.6L33 18C32.2 17.4667 32.2 15.6 33 12.4C33.6667 9.59999 34.3333 7.99999 35 7.59999ZM109.8 18.8C109 18.6667 103.2 18.6 92.4 18.6L75 18.8C73.6667 18.9333 72.8 19.3333 72.4 20C72.4 20.2667 70.3333 28.3333 66.2 44.2L60.2 68.2H76.6L93.2 68L95.2 67.6C103.333 65.6 109.933 61.4667 115 55.2C117.667 52.2667 119.8 48.6667 121.4 44.4C122.2 41.4667 122.6 38.5333 122.6 35.6C122.6 33.3333 122.467 31.6667 122.2 30.6C121.4 27.6667 120 25.2 118 23.2C115.867 21.0667 113.133 19.6 109.8 18.8ZM99 78.2L97.4 77.8L77.6 77.6H58L51.2 104.6C46.6667 122.467 44.4 131.6 44.4 132C44.4 132.267 44.6667 132.467 45.2 132.6H63.8C75.8 132.6 82.4667 132.467 83.8 132.2C93.2667 130.067 100.733 124.933 106.2 116.8C109.667 111.6 111.6 105.8 112 99.4C112.133 92.6 110.4 87.0667 106.8 82.8C104.4 80.4 101.8 78.8667 99 78.2ZM221.558 3.19999C224.891 2.93333 229.224 3 234.558 3.4C246.024 4.99999 255.491 9.66666 262.958 17.4C270.291 24.7333 274.891 34.1333 276.758 45.6C279.691 62.9333 276.291 80.5333 266.558 98.4C264.691 101.733 262.624 105 260.358 108.2C252.758 119.133 243.558 128 232.758 134.8C225.558 139.467 218.424 142.867 211.358 145C192.824 150.733 176.624 149.333 162.758 140.8C159.958 139.067 157.358 137.067 154.958 134.8C146.958 126.933 141.958 116.6 139.958 103.8C139.424 99.5333 139.358 94.1333 139.758 87.6C139.891 87.0667 139.958 86.6 139.958 86.2C142.358 67.9333 150.091 51.1333 163.158 35.8C166.891 31.5333 170.891 27.5333 175.158 23.8C189.958 11.5333 205.424 4.66666 221.558 3.19999ZM230.558 13.6C227.224 13.0667 223.824 12.9333 220.358 13.2C211.691 14.2667 203.758 17.6 196.558 23.2C186.024 31.2 177.958 42.3333 172.358 56.6C168.224 66.8667 165.291 78.4 163.558 91.2C163.024 96.4 162.958 102 163.358 108C163.491 108.533 163.558 108.933 163.558 109.2C165.558 121.867 171.158 130.533 180.358 135.2C189.291 139.733 199.558 139.2 211.158 133.6C226.091 126.267 237.624 112.467 245.758 92.2C250.424 80.2 253.424 68.2 254.758 56.2C255.291 51.8 255.291 47.1333 254.758 42.2C254.758 41.9333 254.758 41.6667 254.758 41.4C253.291 32.8667 250.358 26.4 245.958 22C241.691 17.6 236.558 14.8 230.558 13.6ZM304.697 7.59999H345.497H345.897C346.43 7.86666 346.697 8.06666 346.697 8.2C346.964 8.73333 353.964 25.2667 367.697 57.8C381.564 90.8667 388.497 107.067 388.497 106.4L408.897 24.6C408.897 22.6 407.83 21.2 405.697 20.4C403.297 19.2 399.497 18.6 394.297 18.6H392.097L391.297 18C390.897 17.4667 390.697 17 390.697 16.6L392.897 8.39999C393.297 7.73333 395.097 7.46666 398.297 7.59999C398.697 7.59999 399.297 7.59999 400.097 7.59999C409.164 8.13333 420.43 8.19999 433.897 7.79999C435.23 7.66666 436.297 7.59999 437.097 7.59999C440.964 7.46666 443.164 7.86666 443.697 8.79999C443.964 9.19999 443.764 10.7333 443.097 13.4C442.43 16.0667 441.897 17.6 441.497 18L440.897 18.6H438.697C428.964 18.6 422.697 20.7333 419.897 25C419.364 26.4667 414.43 46.1333 405.097 84C395.23 123.467 390.297 143 390.297 142.6C389.23 143.533 387.497 144 385.097 144H381.297L380.697 143.4C380.164 142.867 371.764 123.2 355.497 84.4C338.964 45.3333 330.697 26 330.697 26.4C330.564 26.5333 326.364 43.2 318.097 76.4C309.83 109.733 305.697 126.6 305.697 127C305.697 130.467 310.03 132.4 318.697 132.8C321.497 132.8 323.164 133.267 323.697 134.2C323.83 134.6 323.63 136.133 323.097 138.8C322.43 141.333 321.83 142.867 321.297 143.4L320.697 144H318.097C305.83 143.333 292.164 143.267 277.097 143.8C273.364 143.933 271.23 143.533 270.697 142.6C270.564 142.2 270.764 140.667 271.297 138C271.964 135.467 272.564 133.933 273.097 133.4L273.697 132.8H275.897C283.897 132.8 289.497 131.4 292.697 128.6C293.63 127.667 294.364 126.333 294.897 124.6C295.83 121.8 300.297 104.4 308.297 72.4L321.697 19H321.097L311.897 18.6H303.297L302.497 17.8C302.097 17.4 301.897 17 301.897 16.6L304.097 8.39999C304.097 8.26666 304.297 7.99999 304.697 7.59999ZM514.644 0.999993L519.244 0.799996H519.444C523.044 0.799996 524.977 1.19999 525.244 1.99999C525.377 2.53333 527.177 24.1333 530.644 66.8C533.977 109.733 535.777 131.333 536.044 131.6C536.177 131.733 536.644 131.933 537.444 132.2C539.044 132.6 542.91 132.8 549.044 132.8H553.044L553.844 133.4C554.244 134.067 554.444 134.533 554.444 134.8L552.644 142.8C552.244 143.6 550.777 143.933 548.244 143.8C547.71 143.8 546.71 143.8 545.244 143.8C525.91 143.267 510.11 143.333 497.844 144H495.444L494.844 143.4C494.31 142.867 494.044 142.333 494.044 141.8C494.044 139.667 494.71 137.067 496.044 134C496.31 133.2 498.244 132.8 501.844 132.8C505.044 132.533 507.177 132.4 508.244 132.4C511.31 131.867 512.977 131.333 513.244 130.8C513.377 130.667 513.11 126.267 512.444 117.6C511.777 109.867 511.444 105.467 511.444 104.4C511.444 104.133 503.844 104 488.644 104H465.644L459.644 114.6C455.377 121.8 453.177 125.733 453.044 126.4C452.51 127.733 452.71 128.867 453.644 129.8C454.977 131.4 457.844 132.4 462.244 132.8C464.11 132.8 465.31 133.267 465.844 134.2L466.044 134.8L465.044 138.8C464.51 141.333 463.977 142.867 463.444 143.4L462.844 144H460.444C449.377 143.467 438.91 143.333 429.044 143.6C422.244 143.867 418.777 144 418.644 144H417.244L416.644 143.4C416.11 142.867 415.844 142.4 415.844 142L417.644 134C418.177 133.2 419.71 132.8 422.244 132.8C431.577 132.4 438.044 129.733 441.644 124.8L477.844 62.8C501.044 22.6667 512.91 2.33333 513.444 1.79999C513.577 1.66666 513.977 1.4 514.644 0.999993ZM508.244 64C506.777 44.9333 506.044 35.2667 506.044 35C506.044 34.4667 503.11 39.3333 497.244 49.6L480.444 78.6L472.244 92.6L491.244 92.8H510.444C510.444 92.9333 509.71 83.3333 508.244 64Z" fill="black"/>
</svg>
