<svg  width="184" height="218" viewBox="0 0 184 218" fill="none" xmlns="http://www.w3.org/2000/svg">
    <rect y="0.160004" width="184" height="184" rx="17" fill="#F8F9F1"/>
    <path d="M58 39.29C58.2067 39.1867 68.5917 39.135 89.155 39.135C109.718 39.2383 120.672 39.3933 122.015 39.6C125.425 40.1167 128.732 41.15 131.935 42.7C135.758 44.6633 138.703 47.195 140.77 50.295C145.007 56.495 145.368 63.16 141.855 70.29C141.235 71.53 140.512 72.7183 139.685 73.855C138.135 76.2317 135.758 78.66 132.555 81.14C127.492 84.86 121.498 87.5983 114.575 89.355C114.265 89.4583 114.11 89.5617 114.11 89.665C114.833 89.665 116.693 90.13 119.69 91.06C126.613 93.23 131.367 97.0017 133.95 102.375C136.843 108.265 136.585 114.723 133.175 121.75C129.042 130.12 122.015 136.527 112.095 140.97C111.475 141.28 110.907 141.538 110.39 141.745C106.98 143.088 103.467 144.018 99.85 144.535C98.5067 144.742 86.985 144.897 65.285 145C43.4817 145 32.3733 144.845 31.96 144.535L31.65 143.915C31.5467 143.605 31.7017 142.417 32.115 140.35C32.735 138.283 33.1483 137.095 33.355 136.785L33.975 136.32H39.245C45.0317 136.217 48.2867 135.803 49.01 135.08C49.32 134.873 53.04 120.51 60.17 91.99C67.3 63.47 70.865 49.1067 70.865 48.9C70.865 48.7967 70.7617 48.6417 70.555 48.435C70.1417 48.2283 67.3517 48.0217 62.185 47.815H56.915L56.45 47.35C55.83 46.9367 55.83 45.49 56.45 43.01C56.9667 40.84 57.4833 39.6 58 39.29ZM115.97 47.97C115.35 47.8667 110.855 47.815 102.485 47.815L89 47.97C87.9667 48.0733 87.295 48.3833 86.985 48.9C86.985 49.1067 85.3833 55.3583 82.18 67.655L77.53 86.255H90.24L103.105 86.1L104.655 85.79C110.958 84.24 116.073 81.0367 120 76.18C122.067 73.9067 123.72 71.1167 124.96 67.81C125.58 65.5367 125.89 63.2633 125.89 60.99C125.89 59.2333 125.787 57.9417 125.58 57.115C124.96 54.8417 123.875 52.93 122.325 51.38C120.672 49.7267 118.553 48.59 115.97 47.97ZM107.6 94.005L106.36 93.695L91.015 93.54H75.825L70.555 114.465C67.0417 128.312 65.285 135.39 65.285 135.7C65.285 135.907 65.4917 136.062 65.905 136.165H80.32C89.62 136.165 94.7867 136.062 95.82 135.855C103.157 134.202 108.943 130.223 113.18 123.92C115.867 119.89 117.365 115.395 117.675 110.435C117.778 105.165 116.435 100.877 113.645 97.57C111.785 95.71 109.77 94.5217 107.6 94.005Z" fill="black"/>
</svg>
